# xmcd CD database file
#
# Track frame offsets:
#	150
#	21323
#	40753
#	61562
#	78975
#	101112
#	123634
#	145018
#	166517
#	189771
#
# Disc length: 2760 seconds
#
# Revision: 0
# Processed by: cddbd v1.5.1PL2 Copyright (c) Steve Scherf et al.
# Submitted via: CDex 1.51
#
DISCID=720ac60a
DTITLE=黒夢 - Singles
DYEAR=1900
DGENRE=Rock
TTITLE0=for dear
TTITLE1=Ice My Life
TTITLE2=ピストル
TTITLE3=Miss MONLIGHT
TTITLE4=BEAMS
TTITLE5=SEE YOU
TTITLE6=ピストル
TTITLE7=Like @ Angel
TTITLE8=NITE and DAY
TTITLE9=Spray
EXTD=
EXTT0=
EXTT1=
EXTT2=
EXTT3=
EXTT4=
EXTT5=
EXTT6=
EXTT7=
EXTT8=
EXTT9=
PLAYORDER=
